<svg xmlns="http://www.w3.org/2000/svg" viewBox="0 0 4177 700" width="2387" height="400" role="img" aria-label="NEXXAI"><defs><linearGradient id="nx" gradientUnits="userSpaceOnUse" x1="0" y1="0" x2="4177" y2="0"><stop offset="0" stop-color="#ffffff"/><stop offset="1" stop-color="#8b5cf6"/></linearGradient></defs><g transform="translate(0,700) scale(1,-1)" fill="url(#nx)"><path d="M70.34370257966617 0.0V700.0H233.31183611532626L618.7921092564492 233.6585735963581H541.825493171472V700.0H735.8285280728377V0.0H572.8603945371775L187.38012139605462 466.3414264036419H264.3467374810319V0.0ZM896.3437025796661 0.0V700.0H1444.5523520485585V546.5151745068285H1091.726100151745V153.48482549317148H1457.8626707132019V0.0ZM1077.8983308042489 281.48179059180575V428.8285280728376H1402.9317147192717V281.48179059180575ZM1515.8960546282246 0.0 1822.0 425.44916540212444 1821.3103186646433 284.34370257966617 1526.757966616085 700.0H1749.864946889226L1937.6570561456751 429.44916540212444L1843.2761760242793 428.44916540212444L2027.9992412746585 700.0H2241.657814871017L1947.726100151745 292.41274658573593V431.58725341426407L2257.588770864947 0.0H2030.412746585736L1838.896813353566 284.72306525037936L1929.8983308042489 285.41274658573593L1742.0720789074355 0.0ZM2272.8960546282246 0.0 2579.0 425.44916540212444 2578.3103186646435 284.34370257966617 2283.757966616085 700.0H2506.8649468892263L2694.657056145675 429.44916540212444L2600.2761760242793 428.44916540212444L2784.9992412746587 700.0H2998.657814871017L2704.726100151745 292.41274658573593V431.58725341426407L3014.588770864947 0.0H2787.412746585736L2595.896813353566 284.72306525037936L2686.898330804249 285.41274658573593L2499.0720789074353 0.0ZM3017.9650986342945 0.0 3327.0682852807286 700.0H3522.140364188164L3831.553869499241 0.0H3626.0333839150226L3384.2071320182094 603.2056145675266H3461.932473444613L3220.1062215477996 0.0ZM3186.9317147192714 136.27465857359635 3237.932473444613 282.06980273141124H3579.7928679817906L3631.1039453717754 136.27465857359635ZM3908.343702579666 0.0V700.0H4106.484825493171V0.0Z"/></g></svg>