<svg xmlns="http://www.w3.org/2000/svg" width="140" height="140" viewBox="0 0 140 140"><rect width="140" height="140" fill="#171019"/><polygon points="-0.4,0.5 23.8,-0.3 20.1,20.8 -2.8,20.1" fill="#f4a261" stroke="#120c17" stroke-width="1.6"/><polygon points="16.3,-1.8 36.3,2.8 41.7,15.9 24.3,24.2" fill="#e63946" stroke="#120c17" stroke-width="1.6"/><polygon points="41.4,1.1 63.0,-3.9 55.8,23.4" fill="#e63946" stroke="#120c17" stroke-width="1.5"/><polygon points="41.4,1.1 55.8,23.4 40.9,22.5" fill="#e76f51" stroke="#120c17" stroke-width="1.5"/><polygon points="60.2,1.3 80.0,1.5 79.6,18.0 64.5,24.5" fill="#f6bd60" stroke="#120c17" stroke-width="1.6"/><polygon points="77.8,2.3 100.1,-4.2 100.6,16.5" fill="#2a9d8f" stroke="#120c17" stroke-width="1.5"/><polygon points="77.8,2.3 100.6,16.5 76.5,18.1" fill="#1d8a99" stroke="#120c17" stroke-width="1.5"/><polygon points="95.5,-2.6 123.7,-0.3 124.3,19.1 96.2,21.2" fill="#457b9d" stroke="#120c17" stroke-width="1.6"/><polygon points="118.5,-1.7 135.6,-0.8 143.8,16.7 121.9,15.6" fill="#6a994e" stroke="#120c17" stroke-width="1.6"/><polygon points="-2.9,20.5 19.5,17.2 22.1,36.7" fill="#e76f51" stroke="#120c17" stroke-width="1.5"/><polygon points="-2.9,20.5 22.1,36.7 1.3,36.5" fill="#2a9d8f" stroke="#120c17" stroke-width="1.5"/><polygon points="17.9,24.2 42.7,18.2 43.5,37.4 19.0,43.2" fill="#e9c46a" stroke="#120c17" stroke-width="1.6"/><polygon points="35.9,16.8 59.5,15.6 61.0,43.0" fill="#1d8a99" stroke="#120c17" stroke-width="1.5"/><polygon points="35.9,16.8 61.0,43.0 39.0,36.2" fill="#e76f51" stroke="#120c17" stroke-width="1.5"/><polygon points="55.6,18.8 81.1,16.6 80.8,43.0 56.7,39.0" fill="#457b9d" stroke="#120c17" stroke-width="1.6"/><polygon points="83.7,22.9 97.7,17.2 102.2,44.0 77.3,44.1" fill="#e63946" stroke="#120c17" stroke-width="1.6"/><polygon points="96.2,15.9 116.5,20.1 117.8,42.2 99.0,39.3" fill="#6a994e" stroke="#120c17" stroke-width="1.6"/><polygon points="118.1,17.1 142.0,16.1 137.6,40.5" fill="#e76f51" stroke="#120c17" stroke-width="1.5"/><polygon points="118.1,17.1 137.6,40.5 123.2,41.0" fill="#2a9d8f" stroke="#120c17" stroke-width="1.5"/><polygon points="-3.9,39.2 17.7,35.9 18.0,60.3" fill="#6a994e" stroke="#120c17" stroke-width="1.5"/><polygon points="-3.9,39.2 18.0,60.3 4.3,56.3" fill="#a8dadc" stroke="#120c17" stroke-width="1.5"/><polygon points="21.4,41.7 40.8,36.8 35.8,55.7 23.7,61.8" fill="#2a9d8f" stroke="#120c17" stroke-width="1.6"/><polygon points="40.9,36.2 56.1,38.3 56.7,56.2" fill="#f6bd60" stroke="#120c17" stroke-width="1.5"/><polygon points="40.9,36.2 56.7,56.2 39.6,58.8" fill="#f4a261" stroke="#120c17" stroke-width="1.5"/><polygon points="62.6,43.7 78.7,41.7 83.6,63.3 59.3,62.6" fill="#e63946" stroke="#120c17" stroke-width="1.6"/><polygon points="75.6,41.5 98.9,35.6 96.2,56.3" fill="#a8dadc" stroke="#120c17" stroke-width="1.5"/><polygon points="75.6,41.5 96.2,56.3 76.5,57.8" fill="#f1faee" stroke="#120c17" stroke-width="1.5"/><polygon points="103.9,41.7 119.6,39.7 120.4,60.2" fill="#2a9d8f" stroke="#120c17" stroke-width="1.5"/><polygon points="103.9,41.7 120.4,60.2 100.1,58.3" fill="#e76f51" stroke="#120c17" stroke-width="1.5"/><polygon points="124.1,36.5 142.5,41.4 139.9,63.6 118.8,56.8" fill="#bc6c25" stroke="#120c17" stroke-width="1.6"/><polygon points="-3.0,63.7 21.4,59.5 23.5,78.4" fill="#e76f51" stroke="#120c17" stroke-width="1.5"/><polygon points="-3.0,63.7 23.5,78.4 1.5,77.3" fill="#f6bd60" stroke="#120c17" stroke-width="1.5"/><polygon points="19.0,60.7 38.3,56.7 40.0,83.0 23.1,81.9" fill="#457b9d" stroke="#120c17" stroke-width="1.6"/><polygon points="42.9,56.5 59.7,63.8 63.0,78.9 40.2,81.5" fill="#e63946" stroke="#120c17" stroke-width="1.6"/><polygon points="59.6,56.2 75.8,63.4 75.9,81.9 60.6,78.3" fill="#2a9d8f" stroke="#120c17" stroke-width="1.6"/><polygon points="81.3,59.1 97.2,62.4 97.9,82.5" fill="#e9c46a" stroke="#120c17" stroke-width="1.5"/><polygon points="81.3,59.1 97.9,82.5 82.7,84.4" fill="#1d8a99" stroke="#120c17" stroke-width="1.5"/><polygon points="100.3,61.3 118.8,56.2 117.3,82.9 97.8,81.9" fill="#bc6c25" stroke="#120c17" stroke-width="1.6"/><polygon points="121.9,57.1 138.0,58.6 141.8,80.2" fill="#f6bd60" stroke="#120c17" stroke-width="1.5"/><polygon points="121.9,57.1 141.8,80.2 121.0,82.3" fill="#e76f51" stroke="#120c17" stroke-width="1.5"/><polygon points="-3.7,83.9 22.0,76.7 19.6,101.1 3.7,98.9" fill="#bc6c25" stroke="#120c17" stroke-width="1.6"/><polygon points="22.7,84.0 39.7,81.4 37.3,102.0 22.9,101.3" fill="#e76f51" stroke="#120c17" stroke-width="1.6"/><polygon points="37.7,79.0 56.3,78.3 64.3,103.9" fill="#bc6c25" stroke="#120c17" stroke-width="1.5"/><polygon points="37.7,79.0 64.3,103.9 37.9,102.0" fill="#e9c46a" stroke="#120c17" stroke-width="1.5"/><polygon points="55.8,78.6 79.3,78.0 83.8,97.5" fill="#bc6c25" stroke="#120c17" stroke-width="1.5"/><polygon points="55.8,78.6 83.8,97.5 63.3,99.4" fill="#a8dadc" stroke="#120c17" stroke-width="1.5"/><polygon points="81.7,83.7 99.7,84.5 103.6,100.2 81.6,99.5" fill="#e63946" stroke="#120c17" stroke-width="1.6"/><polygon points="104.0,76.3 117.5,80.2 118.1,102.1 101.2,100.2" fill="#bc6c25" stroke="#120c17" stroke-width="1.6"/><polygon points="117.8,81.5 144.1,83.3 141.0,98.2" fill="#6a994e" stroke="#120c17" stroke-width="1.5"/><polygon points="117.8,81.5 141.0,98.2 116.8,100.4" fill="#e76f51" stroke="#120c17" stroke-width="1.5"/><polygon points="-0.8,96.5 15.5,98.9 20.3,115.9 3.8,120.4" fill="#e9c46a" stroke="#120c17" stroke-width="1.6"/><polygon points="19.9,101.7 36.1,100.3 39.2,124.1 23.8,117.9" fill="#f4a261" stroke="#120c17" stroke-width="1.6"/><polygon points="38.6,103.6 63.9,103.8 60.2,116.5" fill="#f6bd60" stroke="#120c17" stroke-width="1.5"/><polygon points="38.6,103.6 60.2,116.5 39.3,115.8" fill="#2a9d8f" stroke="#120c17" stroke-width="1.5"/><polygon points="55.8,96.9 75.6,98.1 82.0,117.7 60.0,120.0" fill="#bc6c25" stroke="#120c17" stroke-width="1.6"/><polygon points="81.1,102.0 101.8,103.4 95.7,121.2 82.9,121.0" fill="#1d8a99" stroke="#120c17" stroke-width="1.6"/><polygon points="100.3,97.5 117.4,100.4 120.8,116.7" fill="#f4a261" stroke="#120c17" stroke-width="1.5"/><polygon points="100.3,97.5 120.8,116.7 103.7,121.2" fill="#a8dadc" stroke="#120c17" stroke-width="1.5"/><polygon points="120.9,103.5 137.3,102.5 137.3,116.4" fill="#f1faee" stroke="#120c17" stroke-width="1.5"/><polygon points="120.9,103.5 137.3,116.4 123.5,116.7" fill="#e9c46a" stroke="#120c17" stroke-width="1.5"/><polygon points="-0.6,124.0 20.4,121.8 17.3,141.2 2.7,136.4" fill="#a8dadc" stroke="#120c17" stroke-width="1.6"/><polygon points="23.7,124.2 36.5,120.1 42.3,140.0" fill="#e9c46a" stroke="#120c17" stroke-width="1.5"/><polygon points="23.7,124.2 42.3,140.0 21.7,137.2" fill="#2a9d8f" stroke="#120c17" stroke-width="1.5"/><polygon points="35.8,120.5 60.1,120.6 56.8,137.2 37.3,143.1" fill="#1d8a99" stroke="#120c17" stroke-width="1.6"/><polygon points="56.4,116.1 84.1,119.7 82.4,138.4" fill="#e63946" stroke="#120c17" stroke-width="1.5"/><polygon points="56.4,116.1 82.4,138.4 59.7,140.1" fill="#a8dadc" stroke="#120c17" stroke-width="1.5"/><polygon points="75.6,121.8 103.1,117.1 99.6,142.2" fill="#bc6c25" stroke="#120c17" stroke-width="1.5"/><polygon points="75.6,121.8 99.6,142.2 79.1,137.3" fill="#2a9d8f" stroke="#120c17" stroke-width="1.5"/><polygon points="98.4,116.3 123.1,123.4 123.7,144.0 100.6,137.2" fill="#a8dadc" stroke="#120c17" stroke-width="1.6"/><polygon points="122.7,117.8 143.7,122.2 142.5,142.8 119.2,143.6" fill="#f6bd60" stroke="#120c17" stroke-width="1.6"/></svg>