<svg xmlns="http://www.w3.org/2000/svg" width="160" height="160" viewBox="0 0 160 160"><rect width="160" height="160" fill="#4a3f31"/><polygon points="-35.8,-39.6 3.3,-41.3 -9.6,0.2" fill="#8bbf8f" stroke="#4a3f31" stroke-width="1.7"/><polygon points="-35.8,-39.6 -9.6,0.2 -31.2,-2.9" fill="#9cc4a0" stroke="#4a3f31" stroke-width="1.7"/><polygon points="-9.4,-40.9 30.4,-24.9 34.8,9.7 -8.2,-6.0" fill="#9cc4a0" stroke="#4a3f31" stroke-width="1.7"/><polygon points="22.2,-38.1 65.2,-40.0 65.5,1.3 30.2,0.9" fill="#f7f1e3" stroke="#4a3f31" stroke-width="1.7"/><polygon points="65.8,-29.0 93.2,-31.0 89.6,3.9" fill="#a9cfd0" stroke="#4a3f31" stroke-width="1.7"/><polygon points="65.8,-29.0 89.6,3.9 54.5,-9.6" fill="#b6d3a3" stroke="#4a3f31" stroke-width="1.7"/><polygon points="97.9,-33.0 123.6,-25.6 129.6,0.5 100.3,-5.6" fill="#8bbf8f" stroke="#4a3f31" stroke-width="1.7"/><polygon points="123.4,-21.6 151.7,-33.8 159.8,-10.0 133.6,-7.6" fill="#e9c46a" stroke="#4a3f31" stroke-width="1.7"/><polygon points="161.6,-23.8 187.9,-27.8 191.0,7.4 162.1,1.7" fill="#b6d3a3" stroke="#4a3f31" stroke-width="1.7"/><polygon points="-27.7,-9.5 5.0,-4.1 -1.2,36.7 -30.3,35.9" fill="#cfe3df" stroke="#4a3f31" stroke-width="1.7"/><polygon points="-10.4,-0.8 24.8,-8.3 23.9,26.5" fill="#f0c659" stroke="#4a3f31" stroke-width="1.7"/><polygon points="-10.4,-0.8 23.9,26.5 -9.6,37.8" fill="#f7f1e3" stroke="#4a3f31" stroke-width="1.7"/><polygon points="24.7,-2.1 59.2,-7.9 68.5,42.6 30.5,33.1" fill="#9cc4a0" stroke="#4a3f31" stroke-width="1.7"/><polygon points="74.0,-7.6 89.0,-5.8 97.9,26.8" fill="#9cc4a0" stroke="#4a3f31" stroke-width="1.7"/><polygon points="74.0,-7.6 97.9,26.8 58.2,31.7" fill="#e9c46a" stroke="#4a3f31" stroke-width="1.7"/><polygon points="93.2,1.4 137.9,4.1 131.8,22.3 96.3,34.6" fill="#457b9d" stroke="#4a3f31" stroke-width="1.7"/><polygon points="134.5,-2.3 157.8,-8.6 150.6,25.7" fill="#a9cfd0" stroke="#4a3f31" stroke-width="1.7"/><polygon points="134.5,-2.3 150.6,25.7 130.9,22.5" fill="#e07a4e" stroke="#4a3f31" stroke-width="1.7"/><polygon points="150.3,-10.9 184.4,-8.7 200.1,34.5" fill="#bcd9d6" stroke="#4a3f31" stroke-width="1.7"/><polygon points="150.3,-10.9 200.1,34.5 157.0,21.7" fill="#cfe3df" stroke="#4a3f31" stroke-width="1.7"/><polygon points="-29.8,31.4 -8.4,31.7 -4.1,56.3 -21.6,63.6" fill="#bcd9d6" stroke="#4a3f31" stroke-width="1.7"/><polygon points="-0.5,36.2 32.4,25.6 36.1,73.0 9.8,61.0" fill="#a9cfd0" stroke="#4a3f31" stroke-width="1.7"/><polygon points="42.4,39.9 68.3,26.8 69.9,64.7 29.1,56.8" fill="#a9cfd0" stroke="#4a3f31" stroke-width="1.7"/><polygon points="67.0,34.5 102.3,37.6 93.8,70.6" fill="#f0c659" stroke="#4a3f31" stroke-width="1.7"/><polygon points="67.0,34.5 93.8,70.6 57.4,58.3" fill="#cfe3df" stroke="#4a3f31" stroke-width="1.7"/><polygon points="101.0,42.7 134.3,31.4 124.6,70.7 89.3,66.3" fill="#cfe3df" stroke="#4a3f31" stroke-width="1.7"/><polygon points="137.9,29.1 153.9,26.1 162.7,72.7 121.4,57.6" fill="#b6d3a3" stroke="#4a3f31" stroke-width="1.7"/><polygon points="168.9,28.6 195.1,39.3 196.6,57.5 151.7,61.6" fill="#8bbf8f" stroke="#4a3f31" stroke-width="1.7"/><polygon points="-25.7,60.4 6.5,74.3 9.7,100.9" fill="#f7f1e3" stroke="#4a3f31" stroke-width="1.7"/><polygon points="-25.7,60.4 9.7,100.9 -34.3,93.9" fill="#f3ead7" stroke="#4a3f31" stroke-width="1.7"/><polygon points="-7.6,72.8 38.7,56.3 35.4,92.7 7.1,106.5" fill="#f7f1e3" stroke="#4a3f31" stroke-width="1.7"/><polygon points="21.6,70.5 68.9,55.4 74.6,89.4 37.4,88.2" fill="#f3ead7" stroke="#4a3f31" stroke-width="1.7"/><polygon points="58.6,59.5 90.4,65.9 88.0,104.9" fill="#b6d3a3" stroke="#4a3f31" stroke-width="1.7"/><polygon points="58.6,59.5 88.0,104.9 58.8,94.2" fill="#2a9d8f" stroke="#4a3f31" stroke-width="1.7"/><polygon points="97.8,72.8 126.3,73.1 128.5,85.5" fill="#efe6d0" stroke="#4a3f31" stroke-width="1.7"/><polygon points="97.8,72.8 128.5,85.5 96.0,96.7" fill="#e07a4e" stroke="#4a3f31" stroke-width="1.7"/><polygon points="117.2,70.5 152.9,63.4 156.2,96.4 132.9,97.2" fill="#f7f1e3" stroke="#4a3f31" stroke-width="1.7"/><polygon points="168.3,54.4 185.3,54.0 181.7,104.6" fill="#a9cfd0" stroke="#4a3f31" stroke-width="1.7"/><polygon points="168.3,54.4 181.7,104.6 151.2,95.0" fill="#e07a4e" stroke="#4a3f31" stroke-width="1.7"/><polygon points="-21.7,98.3 -6.5,91.2 0.2,122.5 -31.8,134.7" fill="#bcd9d6" stroke="#4a3f31" stroke-width="1.7"/><polygon points="9.2,104.5 25.5,94.9 28.0,131.7" fill="#f1faee" stroke="#4a3f31" stroke-width="1.7"/><polygon points="9.2,104.5 28.0,131.7 -1.8,125.7" fill="#2a9d8f" stroke="#4a3f31" stroke-width="1.7"/><polygon points="27.7,87.8 70.0,105.6 58.6,120.1" fill="#f7f1e3" stroke="#4a3f31" stroke-width="1.7"/><polygon points="27.7,87.8 58.6,120.1 35.1,125.1" fill="#9cc4a0" stroke="#4a3f31" stroke-width="1.7"/><polygon points="72.4,88.7 99.7,90.0 93.9,126.3" fill="#f7f1e3" stroke="#4a3f31" stroke-width="1.7"/><polygon points="72.4,88.7 93.9,126.3 68.5,138.8" fill="#cfe3df" stroke="#4a3f31" stroke-width="1.7"/><polygon points="85.5,97.2 126.7,85.5 128.3,118.5 92.3,130.7" fill="#f1faee" stroke="#4a3f31" stroke-width="1.7"/><polygon points="138.3,87.4 154.9,86.0 151.9,126.3 134.1,123.0" fill="#bcd9d6" stroke="#4a3f31" stroke-width="1.7"/><polygon points="158.0,96.8 192.3,95.9 198.5,121.1 156.2,123.2" fill="#bcd9d6" stroke="#4a3f31" stroke-width="1.7"/><polygon points="-22.5,130.9 6.6,118.9 7.9,159.0" fill="#e9c46a" stroke="#4a3f31" stroke-width="1.7"/><polygon points="-22.5,130.9 7.9,159.0 -24.2,150.6" fill="#9cc4a0" stroke="#4a3f31" stroke-width="1.7"/><polygon points="9.3,122.9 23.9,128.6 24.6,150.2" fill="#a9cfd0" stroke="#4a3f31" stroke-width="1.7"/><polygon points="9.3,122.9 24.6,150.2 -5.7,151.5" fill="#d9663f" stroke="#4a3f31" stroke-width="1.7"/><polygon points="27.8,133.6 59.4,128.0 53.5,154.6" fill="#f0c659" stroke="#4a3f31" stroke-width="1.7"/><polygon points="27.8,133.6 53.5,154.6 25.0,156.7" fill="#e9c46a" stroke="#4a3f31" stroke-width="1.7"/><polygon points="74.4,128.3 90.5,126.8 99.4,161.0 67.4,163.3" fill="#f0c659" stroke="#4a3f31" stroke-width="1.7"/><polygon points="91.8,121.8 122.1,121.4 120.2,170.7 104.3,165.0" fill="#f7f1e3" stroke="#4a3f31" stroke-width="1.7"/><polygon points="117.4,130.7 168.3,126.5 157.4,160.1 118.3,163.6" fill="#e07a4e" stroke="#4a3f31" stroke-width="1.7"/><polygon points="154.4,123.5 191.1,120.5 202.0,170.3 158.8,154.8" fill="#bcd9d6" stroke="#4a3f31" stroke-width="1.7"/><polygon points="-42.1,168.3 -6.1,153.1 -4.8,195.4" fill="#f3ead7" stroke="#4a3f31" stroke-width="1.7"/><polygon points="-42.1,168.3 -4.8,195.4 -35.6,182.9" fill="#f7f1e3" stroke="#4a3f31" stroke-width="1.7"/><polygon points="-5.1,151.1 29.8,150.0 26.2,193.9 -10.4,187.7" fill="#efe6d0" stroke="#4a3f31" stroke-width="1.7"/><polygon points="35.4,164.7 72.2,157.6 56.4,196.9 28.2,202.5" fill="#f3ead7" stroke="#4a3f31" stroke-width="1.7"/><polygon points="71.1,164.7 96.3,158.5 104.9,197.5 68.4,192.1" fill="#f3ead7" stroke="#4a3f31" stroke-width="1.7"/><polygon points="103.1,161.8 136.5,164.0 117.8,184.0" fill="#f7f1e3" stroke="#4a3f31" stroke-width="1.7"/><polygon points="103.1,161.8 117.8,184.0 100.2,186.1" fill="#9cc4a0" stroke="#4a3f31" stroke-width="1.7"/><polygon points="135.3,161.3 162.8,162.7 149.2,198.5 131.9,191.8" fill="#f0c659" stroke="#4a3f31" stroke-width="1.7"/><polygon points="168.7,151.1 192.6,165.3 199.5,186.2 159.4,198.7" fill="#f1faee" stroke="#4a3f31" stroke-width="1.7"/></svg>